<?xml version="1.0" standalone="no"?>
<!DOCTYPE svg PUBLIC "-//W3C//DTD SVG 20010904//EN"
 "http://www.w3.org/TR/2001/REC-SVG-20010904/DTD/svg10.dtd">
<svg version="1.0" xmlns="http://www.w3.org/2000/svg"
 width="133.000000pt" height="125.000000pt" viewBox="0 0 133.000000 125.000000"
 preserveAspectRatio="xMidYMid meet">

<g transform="translate(0.000000,125.000000) scale(0.100000,-0.100000)"
fill="#000000" stroke="none">
<path d="M0 625 l0 -625 665 0 665 0 0 625 0 625 -665 0 -665 0 0 -625z m881
390 c76 -40 107 -132 69 -209 -41 -85 -137 -117 -219 -74 -58 30 -83 65 -89
126 -12 131 120 218 239 157z m-361 -130 c36 -19 50 -43 50 -89 0 -43 -39 -92
-79 -101 -42 -9 -96 17 -116 55 -47 92 52 183 145 135z m451 -265 c14 -8 19
-21 19 -50 0 -22 2 -40 5 -40 2 0 43 9 90 20 48 11 91 18 96 15 11 -7 12 -215
1 -233 -7 -10 -26 -9 -96 8 -48 11 -89 20 -91 20 -3 0 -5 -20 -5 -44 0 -78 9
-76 -335 -76 -263 0 -306 2 -319 16 -13 12 -16 39 -16 125 l0 109 -34 0 c-26
0 -36 5 -41 20 -10 31 12 60 45 60 19 0 30 5 30 14 0 8 7 22 16 30 13 14 56
16 315 16 188 0 308 -4 320 -10z"/>
<path d="M783 919 c-39 -14 -41 -69 -2 -89 24 -13 65 3 71 28 11 39 -30 76
-69 61z"/>
<path d="M447 815 c-30 -30 5 -65 40 -40 14 11 16 18 7 31 -15 25 -29 27 -47
9z"/>
<path d="M409 439 c-16 -16 -20 -28 -15 -52 9 -45 18 -51 91 -55 82 -5 115 12
115 62 0 50 -24 66 -103 66 -55 0 -71 -4 -88 -21z"/>
</g>
</svg>
